<svg width="58" height="40" viewBox="0 0 58 40" fill="none" xmlns="http://www.w3.org/2000/svg">
<path d="M9.31991 9.42454L0.58804 29.8615C-0.98919 33.553 0.715606 37.8281 4.39581 39.4102C8.07601 40.9922 12.338 39.2822 13.9152 35.5907L17.1404 28.0423L9.79681 10.8547C9.59575 10.3841 9.43736 9.90594 9.31991 9.42454Z" fill="white"/>
<path d="M22.4311 35.8009C22.3989 35.7316 22.3676 35.6615 22.3374 35.5907L22.3324 35.579C21.5832 33.8164 21.5255 31.7616 22.3374 29.8615L29.001 14.2653L35.6646 29.8615C36.4764 31.7616 36.4187 33.8164 35.6696 35.579L35.6646 35.5907C35.6343 35.6615 35.6031 35.7316 35.5709 35.8009C34.8742 37.3 33.6681 38.5674 32.0673 39.3157C31.9979 39.3482 31.9277 39.3797 31.8568 39.4102C31.8374 39.4185 31.8179 39.4268 31.7985 39.4349C30.9191 39.8038 29.9681 39.9995 29.001 40C28.0338 39.9995 27.0829 39.8038 26.2035 39.4349C26.184 39.4268 26.1646 39.4185 26.1451 39.4102C26.0743 39.3797 26.0041 39.3482 25.9347 39.3157C24.3338 38.5674 23.1278 37.3 22.4311 35.8009Z" fill="white"/>
<path d="M37.8074 30.5755L38.8897 28.0423L31.5461 10.8547C31.3451 10.3841 31.1867 9.90594 31.0692 9.42454L29.9869 11.9577L37.3305 29.1453C37.5315 29.6159 37.6899 30.0941 37.8074 30.5755Z" fill="white"/>
<path d="M33.207 4.42114C32.4579 6.18365 32.4002 8.23839 33.212 10.1385L39.8756 25.7347L46.5392 10.1385C47.3511 8.23847 47.2934 6.18381 46.5444 4.42135L46.5392 4.40931C46.5086 4.33759 46.4769 4.26661 46.4443 4.19639C45.6984 2.59223 44.4361 1.38348 42.943 0.684759C42.8733 0.652128 42.8027 0.620481 42.7315 0.589845C42.712 0.581495 42.6926 0.573237 42.6731 0.565069C41.7938 0.196255 40.843 0.000495864 39.8759 0C38.9086 0.000426513 37.9576 0.196187 37.0781 0.565069C37.0587 0.573235 37.0392 0.581495 37.0198 0.589845C36.9475 0.620918 36.876 0.653029 36.8053 0.686155C35.2068 1.4346 34.0024 2.7007 33.3062 4.19811C33.2738 4.26777 33.2424 4.33817 33.212 4.40931L33.207 4.42114Z" fill="white"/>
<path d="M57.3515 29.7154C56.2102 27.2016 53.6837 25.4539 50.7502 25.4539C46.7463 25.4539 43.5004 28.7098 43.5004 32.726C43.5004 33.6833 43.6849 34.5975 44.02 35.4346L44.0867 35.5907C44.2337 35.9346 44.4039 36.2613 44.5948 36.5698C45.7292 38.4027 47.5932 39.591 49.6324 39.9121C49.9968 39.9687 50.3701 39.998 50.7502 39.998C51.2675 39.998 51.772 39.9437 52.2586 39.8404C52.7124 39.7431 53.1635 39.6004 53.6061 39.4102C53.9269 39.2723 54.2326 39.114 54.5224 38.9374C56.302 37.8476 57.5767 36.01 57.9124 33.8601C57.9701 33.4905 58 33.1118 58 32.726C58 32.2138 57.9472 31.714 57.8468 31.2317C57.7497 30.7703 57.6062 30.3115 57.4139 29.8615L57.3515 29.7154Z" fill="white"/>
<path d="M24.7954 4.42215C25.5441 6.18443 25.6016 8.23875 24.7899 10.1385L18.1263 25.7347L11.4627 10.1385C10.6509 8.23847 10.7086 6.18381 11.4576 4.42135L11.4627 4.40931C11.4934 4.33754 11.5251 4.26651 11.5577 4.19624C12.3039 2.59146 13.567 1.3824 15.0609 0.683849C15.13 0.651538 15.1999 0.620196 15.2705 0.589845C15.2899 0.581495 15.3093 0.573237 15.3288 0.565069C16.2083 0.196187 17.1593 0.000426513 18.1266 0C19.0936 0.000495864 20.0445 0.196255 20.9238 0.565069C20.9433 0.573237 20.9627 0.581495 20.9821 0.589845C21.0539 0.620706 21.125 0.652591 21.1952 0.685477C22.6853 1.3832 23.9454 2.58897 24.6914 4.18881C24.7253 4.2615 24.7582 4.33501 24.7899 4.40931L24.7954 4.42215Z" fill="white"/>
</svg>
